<?xml version="1.0" encoding="utf-8"?>
<!-- Generator: Adobe Illustrator 23.0.3, SVG Export Plug-In . SVG Version: 6.00 Build 0)  -->
<svg version="1.1" id="Capa_1" xmlns="http://www.w3.org/2000/svg" xmlns:xlink="http://www.w3.org/1999/xlink" x="0px" y="0px"
	 viewBox="0 0 512 512" style="enable-background:new 0 0 512 512;" xml:space="preserve">
<style type="text/css">
	.st0{fill:none;}
	.st1{fill:#333333;}
</style>
<g id="Surfaces">
	<g id="Photo_Surface">
		<g id="Outline_no_shadow">
			<path class="st0" d="M90.7,0h330.7C471.5,0,512,41.6,512,93v326c0,51.4-40.5,93-90.7,93H90.7C40.5,512,0,470.4,0,419V93
				C0,41.6,40.5,0,90.7,0z"/>
		</g>
	</g>
</g>
<g>
	<path class="st1" d="M203.3,210.6c19.2,9.8,28.8,24.4,28.8,44c0,16.5-6.2,30.2-18.7,40.9c-11.8,10.1-26.2,15.1-43,15.1
		c-14.8,0-28.2-4.2-40.2-12.5c-13.2-9.3-19.9-21.1-19.9-35.5c0-4.6,1.7-8.8,5.2-12.8c3.5-3.9,7.5-5.9,12.1-5.9c5,0,9.7,2.6,13.9,7.8
		c3.6,4.7,7.3,9.5,11.1,14.4c5,5.2,11.1,7.8,18.2,7.8c6.1,0,11.1-2.2,15-6.5s5.8-9.6,5.8-15.7c0-7.1-2.6-12.2-7.8-15.4
		c-3.2-1.9-8.9-3.5-17.3-5c-10.9-1.9-16.3-7.7-16.3-17.5c0-5.4,1.4-9.4,4.3-12.1c2.4-2.2,6.4-3.9,12.1-5.2
		c12.1-2.8,18.2-8.7,18.2-17.7c0-9.9-4.7-14.9-14.2-14.9c-6.8,0-12.6,1.9-17.5,5.7c-0.3,0.2-3.7,3.6-10.2,10.4
		c-3.6,3.8-7.3,5.7-11.1,5.7c-4.6,0-8.4-1.6-11.6-4.8s-4.7-7.1-4.7-11.7c0-4.7,1.5-9.6,4.5-14.7c4.7-8.2,12.1-14.7,22.2-19.6
		c9.5-4.7,19.1-7.1,29.1-7.1c14,0,26.2,4.4,36.4,13.2s15.4,20.2,15.4,34C223.1,189.2,216.5,201,203.3,210.6z"/>
	<path class="st1" d="M318.9,132.8c21.7,0,38.9,4,51.5,12.1c11.8,7.6,21,18,27.4,31.4c6.1,12.6,9.2,26.2,9.2,40.9
		c0,26.5-7.3,47.7-22,63.6c-15.1,16.4-35.9,24.6-62.2,24.6H287c-9.9,0-16.9-1.7-20.8-5.1s-5.9-10-5.9-19.7V160.5
		c0-10.2,2-17.4,5.9-21.5s11-6.1,21.3-6.1L318.9,132.8L318.9,132.8z M299.5,269.3h18c31.2,0,46.8-17.4,46.8-52.1
		c0-31.8-15.8-47.6-47.5-47.6h-17.3V269.3z"/>
	<path class="st1" d="M98.2,332c4.1,0,6.9,2.2,8.5,6.6l12.7,36.2c0.6,1.6,0.8,2.8,0.8,3.6c0,1.6-0.6,2.8-1.7,3.8s-2.4,1.4-4,1.4
		c-2.9,0-4.9-1.8-6.1-5.4l-1.9-5.9H88.9l-2.1,6.3c-1.1,3.3-2.9,5-5.5,5c-1.6,0-2.9-0.5-3.9-1.5s-1.5-2.3-1.5-3.9
		c0-1.2,0.2-2.3,0.6-3.3l13.1-35.5C91.3,334.4,94.2,332,98.2,332z M97.9,344.5l-5.7,17.7h11.4L97.9,344.5L97.9,344.5z"/>
	<path class="st1" d="M127.4,375.4V353c0-5.4,1.9-8.1,5.7-8.1c2.2,0,4,1.2,5.3,3.5c2.1-2.3,5.4-3.5,9.8-3.5
		c9.1,0,13.6,4.8,13.6,14.5v16c0,5.4-1.9,8.2-5.6,8.2c-3.7,0-5.6-2.7-5.6-8.1v-12.6c0-2.8-0.3-4.7-1-5.9c-0.9-1.7-2.5-2.5-5-2.5
		c-3.9,0-5.9,2.7-5.9,8.2v12.8c0,5.4-1.9,8.1-5.6,8.1C129.3,383.6,127.4,380.8,127.4,375.4z"/>
	<path class="st1" d="M172.1,335.4c0-1.8,0.6-3.3,1.9-4.6c1.3-1.2,2.8-1.9,4.6-1.9s3.3,0.6,4.5,1.9c1.2,1.2,1.8,2.8,1.8,4.6
		c0,1.8-0.6,3.3-1.8,4.6c-1.2,1.2-2.7,1.9-4.5,1.9s-3.4-0.6-4.6-1.8C172.7,338.8,172.1,337.3,172.1,335.4z M184.1,375.4
		c0,5.4-1.8,8.2-5.5,8.2s-5.6-2.7-5.6-8.2V353c0-5.4,1.9-8.1,5.6-8.1c3.7,0,5.5,2.7,5.5,8.1V375.4z"/>
	<path class="st1" d="M195.4,375.4V353c0-5.4,1.8-8.1,5.4-8.1c2.3,0,4.2,1.2,5.5,3.5c2.1-2.3,5-3.5,8.9-3.5c4.9,0,8.6,1.7,11.1,5.1
		c3.1-3.4,6.8-5.1,11.2-5.1c8.4,0,12.6,4.8,12.6,14.5v16c0,5.4-1.9,8.2-5.6,8.2c-3.6,0-5.4-2.7-5.4-8.1v-12.6c0-5.6-1.7-8.3-5.2-8.3
		c-3.8,0-5.7,2.7-5.7,8.2v12.8c0,5.4-1.8,8.1-5.5,8.1s-5.5-2.7-5.5-8.1V363c0-5.6-1.7-8.3-5.1-8.3c-3.8,0-5.8,2.7-5.8,8.2v12.8
		c0,5.4-1.8,8.1-5.4,8.1C197.3,383.6,195.4,380.8,195.4,375.4z"/>
	<path class="st1" d="M285.2,379.6c-2.3,2.8-5.4,4.2-9.4,4.2c-5,0-9.2-2.1-12.4-6.2c-3-3.8-4.5-8.3-4.5-13.5s1.6-9.7,4.7-13.6
		c3.3-4.1,7.5-6.2,12.6-6.2c3.7,0,6.7,1.3,9,4c1.3-2.3,3.1-3.5,5.3-3.5c3.7,0,5.5,2.7,5.5,8.1v22.5c0,5.4-1.8,8.2-5.5,8.2
		C288.1,383.6,286.4,382.3,285.2,379.6z M270.5,364c0,2.4,0.6,4.5,1.7,6.2c1.3,1.9,3.2,2.9,5.5,2.9s4.1-1,5.4-2.9
		c1.1-1.7,1.6-3.8,1.6-6.2c0-2.4-0.5-4.5-1.6-6.1c-1.3-1.9-3.1-2.8-5.4-2.8s-4.1,0.9-5.4,2.8C271.1,359.6,270.5,361.7,270.5,364z"/>
	<path class="st1" d="M309.4,355.7c-4.5,0-6.7-1.6-6.7-4.8c0-3.1,2.2-4.7,6.7-5c0-4.5,0.1-7.2,0.3-8.2c0.7-3.3,2.5-4.9,5.3-4.9
		s4.6,1.6,5.2,4.9c0.2,0.9,0.3,3.6,0.3,8.2c5.4,0,8.1,1.7,8.1,5c0,3.2-2.7,4.8-8.1,4.8v19.8c0,5.4-1.8,8.1-5.5,8.1s-5.6-2.7-5.6-8.1
		L309.4,355.7L309.4,355.7z"/>
	<path class="st1" d="M333.7,335.4c0-1.8,0.6-3.3,1.9-4.6c1.3-1.2,2.8-1.9,4.6-1.9c1.8,0,3.3,0.6,4.5,1.9c1.2,1.2,1.8,2.8,1.8,4.6
		c0,1.8-0.6,3.3-1.8,4.6s-2.7,1.9-4.5,1.9s-3.4-0.6-4.6-1.8C334.3,338.8,333.7,337.3,333.7,335.4z M345.7,375.4
		c0,5.4-1.8,8.2-5.5,8.2s-5.6-2.7-5.6-8.2V353c0-5.4,1.9-8.1,5.6-8.1s5.5,2.7,5.5,8.1V375.4z"/>
	<path class="st1" d="M355.1,364.2c0-5.7,1.8-10.4,5.3-14.2c3.5-3.8,8.1-5.8,13.6-5.8c5.7,0,10.2,1.9,13.7,5.7
		c3.4,3.8,5.2,8.6,5.2,14.3c0,5.7-1.7,10.4-5.1,14.1c-3.5,3.9-8.1,5.8-13.7,5.8s-10.1-2-13.7-5.9
		C356.8,374.5,355.1,369.8,355.1,364.2z M366.6,364.1c0,2.5,0.6,4.7,1.8,6.4c1.3,2,3.2,3,5.6,3s4.3-1,5.7-3c1.1-1.7,1.7-3.8,1.7-6.4
		c0-2.5-0.6-4.6-1.8-6.3c-1.3-2-3.2-3-5.6-3s-4.3,1-5.7,3C367.1,359.4,366.6,361.6,366.6,364.1z"/>
	<path class="st1" d="M401.8,375.4V353c0-5.4,1.9-8.1,5.7-8.1c2.2,0,4,1.2,5.3,3.5c2.1-2.3,5.4-3.5,9.8-3.5
		c9.1,0,13.6,4.8,13.6,14.5v16c0,5.4-1.9,8.2-5.6,8.2s-5.6-2.7-5.6-8.1v-12.6c0-2.8-0.3-4.7-1-5.9c-0.9-1.7-2.5-2.5-5-2.5
		c-3.9,0-5.9,2.7-5.9,8.2v12.8c0,5.4-1.9,8.1-5.6,8.1C403.7,383.6,401.8,380.8,401.8,375.4z"/>
</g>
</svg>
