<?xml version="1.0" encoding="utf-8"?>
<!-- Generator: Adobe Illustrator 23.0.3, SVG Export Plug-In . SVG Version: 6.00 Build 0)  -->
<svg version="1.1" id="Capa_1" xmlns="http://www.w3.org/2000/svg" xmlns:xlink="http://www.w3.org/1999/xlink" x="0px" y="0px"
	 viewBox="0 0 512 512" style="enable-background:new 0 0 512 512;" xml:space="preserve">
<style type="text/css">
	.st0{fill:none;}
	.st1{fill:#333333;}
</style>
<g id="Surfaces">
	<g id="Photo_Surface">
		<g id="Outline_no_shadow">
			<path class="st0" d="M90.7,0h330.7C471.5,0,512,41.6,512,93v326c0,51.4-40.5,93-90.7,93H90.7C40.5,512,0,470.4,0,419V93
				C0,41.6,40.5,0,90.7,0z"/>
		</g>
	</g>
</g>
<g>
	<path class="st1" d="M203.3,210.6c19.2,9.8,28.8,24.4,28.8,44c0,16.5-6.2,30.2-18.7,40.9c-11.8,10.1-26.2,15.1-43,15.1
		c-14.8,0-28.2-4.2-40.2-12.5c-13.2-9.3-19.9-21.1-19.9-35.5c0-4.6,1.7-8.8,5.2-12.8c3.5-3.9,7.5-5.9,12.1-5.9c5,0,9.7,2.6,13.9,7.8
		c3.6,4.7,7.3,9.5,11.1,14.4c5,5.2,11.1,7.8,18.2,7.8c6.1,0,11.1-2.2,15-6.5s5.8-9.6,5.8-15.7c0-7.1-2.6-12.2-7.8-15.4
		c-3.2-1.9-8.9-3.5-17.3-5c-10.9-1.9-16.3-7.7-16.3-17.5c0-5.4,1.4-9.4,4.3-12.1c2.4-2.2,6.4-3.9,12.1-5.2
		c12.1-2.8,18.2-8.7,18.2-17.7c0-9.9-4.7-14.9-14.2-14.9c-6.8,0-12.6,1.9-17.5,5.7c-0.3,0.2-3.7,3.6-10.2,10.4
		c-3.6,3.8-7.3,5.7-11.1,5.7c-4.6,0-8.4-1.6-11.6-4.8s-4.7-7.1-4.7-11.7c0-4.7,1.5-9.6,4.5-14.7c4.7-8.2,12.1-14.7,22.2-19.6
		c9.5-4.7,19.1-7.1,29.1-7.1c14,0,26.2,4.4,36.4,13.2s15.4,20.2,15.4,34C223.1,189.2,216.5,201,203.3,210.6z"/>
	<path class="st1" d="M318.9,132.8c21.7,0,38.9,4,51.5,12.1c11.8,7.6,21,18,27.4,31.4c6.1,12.6,9.2,26.2,9.2,40.9
		c0,26.5-7.3,47.7-22,63.6c-15.1,16.4-35.9,24.6-62.2,24.6H287c-9.9,0-16.9-1.7-20.8-5.1s-5.9-10-5.9-19.7V160.5
		c0-10.2,2-17.4,5.9-21.5s11-6.1,21.3-6.1L318.9,132.8L318.9,132.8z M299.5,269.3h18c31.2,0,46.8-17.4,46.8-52.1
		c0-31.8-15.8-47.6-47.5-47.6h-17.3V269.3z"/>
</g>
<g>
	<path class="st1" d="M127.1,368.6l0.3,0l6.9-29.5c0.5-2.1,1.5-3.8,3.1-5.1c1.6-1.3,3.4-2,5.5-2c2.4,0,4.5,0.8,6.2,2.3
		c1.7,1.5,2.8,3.5,3.2,5.9l5.8,35.9c0.3,1.8,0.4,3.1,0.4,4c0,3.8-1.8,5.7-5.4,5.7c-2.1,0-3.6-0.8-4.6-2.4c-0.7-1-1.2-2.8-1.6-5.2
		l-4.5-28.7l-0.2,0l-6.8,26.6c-0.7,2.7-1.5,4.7-2.4,5.9c-1.3,1.7-3.2,2.5-5.7,2.5c-2.4,0-4.3-0.8-5.7-2.5c-0.9-1.1-1.7-3.1-2.4-5.9
		l-6.8-26.6l-0.1,0l-4.5,28.7c-0.4,2.5-0.9,4.2-1.6,5.3c-1,1.6-2.6,2.4-4.7,2.4c-3.6,0-5.4-1.9-5.4-5.7c0-0.6,0.2-1.9,0.5-4
		l5.8-35.9c0.4-2.4,1.4-4.4,3.1-5.9c1.7-1.5,3.7-2.3,6.1-2.3c2.2,0,4,0.6,5.5,1.9c1.5,1.3,2.5,3,3.1,5.1L127.1,368.6z"/>
	<path class="st1" d="M161.4,365.6c0-5.9,1.8-10.9,5.5-14.9c3.7-4,8.4-6,14.2-6c5.9,0,10.7,2,14.3,6c3.6,4,5.4,9,5.4,14.9
		c0,5.9-1.8,10.8-5.3,14.8c-3.7,4-8.5,6-14.3,6c-5.8,0-10.6-2-14.3-6.1C163.2,376.4,161.4,371.5,161.4,365.6z M173.4,365.5
		c0,2.6,0.6,4.9,1.9,6.7c1.4,2.1,3.3,3.2,5.8,3.2c2.5,0,4.5-1.1,5.9-3.2c1.2-1.8,1.8-4,1.8-6.7c0-2.6-0.6-4.8-1.9-6.6
		c-1.4-2.1-3.3-3.2-5.8-3.2c-2.5,0-4.5,1-5.9,3.1C174,360.7,173.4,362.9,173.4,365.5z"/>
	<path class="st1" d="M231.5,348.1h0.4v-10.7c0-5.7,1.8-8.5,5.5-8.5c3.8,0,5.8,2.8,5.8,8.5v39.9c0,5.7-1.9,8.5-5.8,8.5
		c-2.4,0-4.2-1.3-5.5-3.8c-2.4,2.6-5.6,4-9.5,4c-5.1,0-9.5-2.2-13-6.6c-3.3-4.1-4.9-8.8-4.9-14.1c0-5.4,1.6-10.1,4.8-14.1
		c3.4-4.3,7.8-6.5,13.1-6.5C225.9,344.7,228.9,345.8,231.5,348.1z M231.9,366v-2.1c0-5.6-2.6-8.4-7.8-8.4c-2.5,0-4.5,1.1-5.9,3.2
		c-1.2,1.8-1.8,4.1-1.8,6.7c0,2.6,0.6,4.8,1.9,6.6c1.4,2.1,3.4,3.1,5.8,3.1c2.5,0,4.5-0.9,5.9-2.7
		C231.2,370.7,231.9,368.6,231.9,366z"/>
	<path class="st1" d="M260.9,368.9c0.2,2.3,1.2,4,2.8,5.2c1.6,1.2,3.6,1.8,6,1.8c2,0,4.3-0.6,7.1-1.9c2.8-1.3,4.5-1.9,5.2-1.9
		c3.1,0,4.6,1.5,4.6,4.5c0,1.2-0.4,2.3-1.3,3.5c-1.5,2.1-4,3.7-7.3,4.8c-2.8,1-5.8,1.4-8.9,1.4c-5.8,0-10.6-2-14.4-5.9
		c-3.8-4-5.8-8.8-5.8-14.7c0-5.8,1.8-10.7,5.5-14.8c3.7-4.1,8.4-6.1,14.1-6.1c2.8,0,5.4,0.5,7.7,1.6c3.3,1.5,6,3.8,8.1,6.8
		c2.1,3,3.2,6.3,3.2,9.9c0,1.9-0.7,3.4-2.1,4.4c-1.2,0.9-2.8,1.4-4.8,1.4H260.9z M260.8,361.2h15.3c-0.1-2-0.9-3.7-2.3-5
		s-3.1-1.9-5.1-1.9c-2.1,0-3.8,0.6-5.2,1.9C262.1,357.5,261.2,359.2,260.8,361.2z"/>
	<path class="st1" d="M293.3,337.4c0-5.7,1.9-8.5,5.8-8.5c3.8,0,5.8,2.8,5.8,8.5v39.9c0,5.7-1.9,8.5-5.8,8.5c-3.9,0-5.8-2.8-5.8-8.5
		V337.4z"/>
	<path class="st1" d="M312.6,335.6c0-1.9,0.7-3.5,2-4.8s2.9-1.9,4.8-1.9s3.4,0.6,4.7,1.9c1.3,1.3,1.9,2.9,1.9,4.8
		c0,1.9-0.6,3.5-1.9,4.8c-1.3,1.3-2.8,1.9-4.7,1.9c-1.9,0-3.5-0.6-4.8-1.9C313.3,339.1,312.6,337.5,312.6,335.6z M325.2,377.3
		c0,5.7-1.9,8.5-5.8,8.5c-3.9,0-5.8-2.8-5.8-8.5v-23.4c0-5.6,1.9-8.4,5.8-8.4c3.8,0,5.8,2.8,5.8,8.4V377.3z"/>
	<path class="st1" d="M333.4,377.3v-23.4c0-5.6,2-8.4,5.9-8.4c2.3,0,4.2,1.2,5.5,3.7c2.2-2.4,5.6-3.7,10.2-3.7
		c9.5,0,14.2,5,14.2,15.1v16.7c0,5.7-1.9,8.5-5.8,8.5c-3.9,0-5.8-2.8-5.8-8.5v-13.2c0-2.9-0.3-4.9-1-6.1c-0.9-1.7-2.6-2.6-5.2-2.6
		c-4.1,0-6.2,2.9-6.2,8.6v13.3c0,5.7-2,8.5-5.9,8.5C335.4,385.9,333.4,383,333.4,377.3z"/>
	<path class="st1" d="M402.3,380.4H402c-2.4,3.6-5.9,5.5-10.3,5.5c-2.3,0-4.4-0.5-6.5-1.5c-3.4-1.7-6-4.3-7.8-7.8
		c-1.7-3.3-2.5-6.9-2.5-10.9c0-5.4,1.6-10.2,4.9-14.2c3.5-4.3,7.8-6.5,13.2-6.5c3.9,0,7,1.4,9.4,4.2c1.2-2.4,2.9-3.7,5.1-3.7
		c3.9,0,5.8,2.8,5.8,8.4v23.4c0,3.6-0.2,6.7-0.5,9.3c-0.7,5.1-2.9,9.1-6.6,11.8c-3.5,2.5-7.9,3.7-13.3,3.7c-5.4,0-9.6-0.9-12.6-2.6
		c-3-1.7-4.5-3.7-4.5-5.9c0-1.5,0.5-2.7,1.4-3.7c0.9-1,2.1-1.4,3.6-1.4c0.9,0,2.6,0.5,5.1,1.5c2.5,1,5,1.5,7.3,1.5
		c3,0,5.2-0.9,6.8-2.7c1.5-1.8,2.3-4.2,2.3-7.1V380.4z M402.3,366.3v-2.1c0-5.5-2.6-8.2-7.8-8.2c-2.4,0-4.4,1-5.8,3.1
		c-1.2,1.8-1.9,4-1.9,6.5c0,2.6,0.6,4.8,1.8,6.6c1.4,2.1,3.3,3.1,5.8,3.1c2.5,0,4.5-0.9,5.9-2.7C401.7,371,402.3,368.9,402.3,366.3z
		"/>
</g>
</svg>
