<?xml version="1.0" encoding="utf-8"?>
<!-- Generator: Adobe Illustrator 23.0.3, SVG Export Plug-In . SVG Version: 6.00 Build 0)  -->
<svg version="1.1" id="Layer_1" xmlns="http://www.w3.org/2000/svg" xmlns:xlink="http://www.w3.org/1999/xlink" x="0px" y="0px"
	 viewBox="0 0 69 69" style="enable-background:new 0 0 69 69;" xml:space="preserve">
<style type="text/css">
	.st0{fill:#212121;}
	.st1{fill:#F2F2F3;}
</style>
<g>
	<path class="st0" d="M63,69H6c-3.31,0-6-2.69-6-6V6c0-3.31,2.69-6,6-6h57c3.31,0,6,2.69,6,6v57C69,66.31,66.31,69,63,69z"/>
	<path class="st1" d="M39.84,35.1c0.02-0.04,0.04-0.07,0.06-0.11c0.02-0.04,0.03-0.08,0.04-0.12c0.01-0.04,0.03-0.08,0.03-0.12
		c0.01-0.04,0.01-0.08,0.01-0.13c0-0.04,0.01-0.08,0.01-0.12c0-0.04-0.01-0.08-0.01-0.12c0-0.04-0.01-0.08-0.01-0.13
		c-0.01-0.04-0.02-0.08-0.03-0.12c-0.01-0.04-0.02-0.08-0.04-0.12c-0.02-0.04-0.04-0.08-0.06-0.11c-0.02-0.04-0.04-0.08-0.06-0.11
		c-0.02-0.04-0.05-0.07-0.08-0.1c-0.03-0.03-0.05-0.07-0.08-0.09l-8.37-8.51c-0.51-0.51-1.33-0.52-1.85-0.02
		c-0.51,0.51-0.52,1.33-0.02,1.85l7.47,7.6l-7.47,7.6c-0.51,0.51-0.5,1.34,0.02,1.85c0.25,0.25,0.59,0.38,0.92,0.38
		c0.34,0,0.68-0.13,0.93-0.39l8.37-8.51c0.03-0.03,0.05-0.06,0.08-0.1c0.03-0.03,0.06-0.07,0.08-0.1
		C39.8,35.18,39.82,35.14,39.84,35.1z"/>
</g>
</svg>
