<?xml version="1.0" encoding="utf-8"?>
<!-- Generator: Adobe Illustrator 23.0.3, SVG Export Plug-In . SVG Version: 6.00 Build 0)  -->
<svg version="1.1" id="Layer_1" xmlns="http://www.w3.org/2000/svg" xmlns:xlink="http://www.w3.org/1999/xlink" x="0px" y="0px"
	 viewBox="0 0 512 512" style="enable-background:new 0 0 512 512;" xml:space="preserve">
<style type="text/css">
	.st0{fill:#333333;}
</style>
<path class="st0" d="M87.2,331.8l32.3-19.5c3.8-2.3,8.6-1.1,10.9,2.7c6.3,10.2,13.3,17.9,26.9,17.9c15.8,0,25.8-6.2,25.8-30.2V147.1
	c0-4.4,3.6-8,8-8h32.1c4.4,0,8,3.6,8,8v156.3c0,49.8-29.2,72.5-71.8,72.5C120.9,375.8,98.6,355.8,87.2,331.8 M257.4,326.7l32.7-18.9
	c3.6-2.1,8.1-1.1,10.5,2.3c9.8,13.7,22.7,23.2,43.4,23.2c19.9,0,32.6-10,32.6-23.7c0-16.5-13.1-22.3-35.1-32l-12-5.2
	c-34.7-14.8-57.7-33.3-57.7-72.5c0-36.1,27.5-63.6,70.5-63.6c27.9,0,48.6,8.9,64.1,31.5c2.5,3.7,1.5,8.8-2.3,11.2L380,194.4
	c-3.6,2.3-8.3,1.4-10.8-2.1c-7.2-10.1-15.3-14.2-26.9-14.2c-14.1,0-23,8.9-23,20.6c0,14.4,8.9,20.3,29.6,29.2l12,5.2
	c40.9,17.5,63.9,35.4,63.9,75.6c0,43.3-34,67-79.7,67C300.3,375.8,271.4,354.5,257.4,326.7"/>
</svg>
