<?xml version="1.0" encoding="utf-8"?>
<!-- Generator: Adobe Illustrator 23.0.3, SVG Export Plug-In . SVG Version: 6.00 Build 0)  -->
<svg version="1.1" id="Outline" xmlns="http://www.w3.org/2000/svg" xmlns:xlink="http://www.w3.org/1999/xlink" x="0px" y="0px"
	 viewBox="0 0 512 512" style="enable-background:new 0 0 512 512;" xml:space="preserve">
<style type="text/css">
	.st0{fill:none;}
	.st1{fill:#333333;}
</style>
<g id="Surfaces">
	<g id="Photo_Surface">
		<g id="Outline_no_shadow">
			<path class="st0" d="M90.7,0h330.7C471.5,0,512,41.6,512,93v326c0,51.4-40.5,93-90.7,93H90.7C40.5,512,0,470.4,0,419V93
				C0,41.6,40.5,0,90.7,0z"/>
		</g>
	</g>
</g>
<g>
	<path class="st1" d="M126.8,137.8c6.7,0,11.4,3.6,13.9,10.9l20.8,59.4c0.9,2.6,1.4,4.5,1.4,5.9c0,2.6-0.9,4.6-2.7,6.2
		c-1.8,1.6-4,2.4-6.6,2.4c-4.8,0-8.1-3-10-8.9l-3.1-9.7h-29.2l-3.4,10.4c-1.8,5.5-4.8,8.2-9.1,8.2c-2.6,0-4.8-0.8-6.5-2.4
		c-1.7-1.6-2.5-3.8-2.5-6.4c0-2,0.3-3.8,0.9-5.4l21.5-58.3C115.4,141.9,120.2,137.8,126.8,137.8z M126.2,158.3l-9.4,29h18.7l-9.1-29
		H126.2z"/>
	<path class="st1" d="M187,163.1h0.5c3.9-3.5,8.7-5.3,14.4-5.3c8.5,0,15.4,3.4,20.7,10.3c4.9,6.3,7.4,13.9,7.4,22.7
		c0,6.3-1.5,12.1-4.5,17.3c-3.1,5.4-7.4,9.5-12.9,12.2c-3.4,1.7-7,2.5-10.7,2.5c-6.3,0-11.3-2.1-14.8-6.2c-2.3,4-5.3,6-8.7,6
		c-6.2,0-9.3-4.5-9.3-13.4v-62.9c0-8.9,3.1-13.4,9.3-13.4c5.8,0,8.7,4.5,8.7,13.4L187,163.1L187,163.1z M187,190.9
		c0,4.1,1,7.5,3,10.2c2.2,3,5.3,4.5,9.2,4.5s7.1-1.6,9.3-4.9c1.9-2.8,2.8-6.3,2.8-10.4c0-4.2-0.9-7.8-2.8-10.7c-2.2-3.3-5.3-5-9.3-5
		s-7.1,1.5-9.3,4.6c-1.9,2.7-2.8,6.2-2.8,10.3L187,190.9L187,190.9z"/>
	<path class="st1" d="M235.7,190.7c0-9.3,2.9-17.1,8.7-23.4c5.8-6.3,13.2-9.5,22.4-9.5c9.3,0,16.8,3.1,22.4,9.4
		c5.7,6.3,8.5,14.1,8.5,23.5c0,9.3-2.8,17-8.4,23.2c-5.8,6.3-13.3,9.5-22.5,9.5c-9.1,0-16.7-3.2-22.5-9.6
		C238.5,207.6,235.7,199.9,235.7,190.7z M254.6,190.6c0,4.2,1,7.7,2.9,10.5c2.2,3.3,5.2,5,9.2,5s7.1-1.7,9.3-5
		c1.9-2.8,2.8-6.3,2.8-10.5c0-4.1-1-7.6-2.9-10.4c-2.2-3.3-5.3-5-9.2-5c-4,0-7.1,1.6-9.3,4.9C255.6,182.9,254.6,186.4,254.6,190.6z"
		/>
	<path class="st1" d="M306.5,196.6v-24.4c0-8.8,3.1-13.3,9.2-13.3s9.2,4.4,9.2,13.2v20.6c0,4.1,0.5,7.1,1.6,9.2
		c1.4,2.8,4,4.2,7.8,4.2s6.4-1.4,7.8-4.2c1.1-2,1.6-5.1,1.6-9.2v-20.6c0-8.8,3.1-13.2,9.2-13.2c6,0,9.1,4.4,9.1,13.3v24.4
		c0,8.8-2.4,15.4-7.2,20c-4.8,4.6-11.6,6.9-20.5,6.9s-15.7-2.3-20.5-6.9C308.9,212,306.5,205.4,306.5,196.6z"/>
	<path class="st1" d="M377.9,176.7c-7.3,0-11-2.6-11-7.9c0-5.1,3.7-7.8,11-8.2c0-7.4,0.2-11.9,0.5-13.4c1.1-5.4,4-8.1,8.7-8.1
		c4.6,0,7.5,2.7,8.6,8.1c0.3,1.5,0.5,6,0.5,13.4c8.8,0,13.3,2.7,13.3,8.2c0,5.3-4.4,7.9-13.3,7.9v32.5c0,8.9-3,13.4-9.1,13.4
		s-9.2-4.5-9.2-13.4V176.7z"/>
	<path class="st1" d="M90.8,350.5v-74.8c0-18,6.1-26.9,18.2-26.9c7.8,0,13.9,3.9,18.4,11.7c6.9-7.8,16.8-11.7,29.6-11.7
		c16.2,0,28.6,5.7,37,17c10.3-11.3,22.7-17,37.5-17c28,0,42,16.1,42,48.3v53.4c0,18.1-6.2,27.2-18.5,27.2c-12,0-18-9-18-27.1v-42
		c0-18.5-5.8-27.8-17.3-27.8c-12.6,0-19,9.1-19,27.3v42.5c0,18.1-6.1,27.1-18.3,27.1s-18.3-9-18.3-27.1v-42
		c0-18.5-5.7-27.8-17.1-27.8c-12.8,0-19.2,9.1-19.2,27.3v42.5c0,18.1-6.1,27.1-18.2,27.1C97.1,377.7,90.8,368.7,90.8,350.5z"/>
	<path class="st1" d="M329.3,323.5c0.8,7.2,3.8,12.7,9,16.5s11.6,5.7,19.1,5.7c6.3,0,13.9-2,22.7-6.1c8.9-4.1,14.4-6.1,16.5-6.1
		c9.8,0,14.7,4.8,14.7,14.5c0,3.7-1.4,7.4-4.1,11c-4.9,6.7-12.7,11.9-23.4,15.4c-9,3.1-18.5,4.6-28.3,4.6c-18.4,0-33.7-6.3-46-19
		c-12.3-12.6-18.4-28.2-18.4-46.8c0-18.4,5.9-34.1,17.6-47.1s26.7-19.5,44.9-19.5c9,0,17.2,1.7,24.6,5.1c10.6,4.9,19.2,12.2,26,21.8
		c6.7,9.7,10.1,20.1,10.1,31.5c0,6.1-2.2,10.8-6.7,14c-3.8,2.9-8.9,4.4-15.2,4.4h-63.1V323.5z M328.9,299.1h48.9
		c-0.5-6.4-3-11.7-7.5-15.9c-4.5-4.1-10-6.2-16.4-6.2c-6.6,0-12.1,2-16.5,6.1C332.9,287.2,330.1,292.5,328.9,299.1z"/>
</g>
</svg>
